<svg viewBox="0 0 30 30" width="30" height="30" xmlns="http://www.w3.org/2000/svg" >
  <path d="M15.5941 15.0254L19.6535 10.8629C19.8515 10.6599 19.8515 10.3553 19.6535 10.1523C19.4554 9.94924 19.1584 9.94924 18.9604 10.1523L14.901 14.3147L10.8416 10.1523C10.6436 9.94924 10.3465 9.94924 10.1485 10.1523C9.95049 10.3553 9.95049 10.6599 10.1485 10.8629L14.2079 15.0254L10.1485 19.1878C9.95049 19.3909 9.95049 19.6954 10.1485 19.8985C10.2475 20 10.3465 20 10.5446 20C10.7426 20 10.8416 20 10.9406 19.8985L15 15.736L19.0594 19.8985C19.1584 20 19.2574 20 19.4554 20C19.6535 20 19.7525 20 19.8515 19.8985C20.0495 19.6954 20.0495 19.3909 19.8515 19.1878L15.5941 15.0254Z" fill="#fff"/>
</svg>
